<svg width="128" height="96" viewBox="0 0 128 96" xmlns="http://www.w3.org/2000/svg"><title>easy step 2</title><g fill="none" fill-rule="evenodd"><rect stroke="#2A3052" stroke-width="2" x="1" y="1" width="126" height="94" rx="9"/><path d="M5.5 72.5h117" stroke="#2A3052" stroke-linecap="square"/><path stroke="#2A3052" stroke-width="2" d="M31.442 65.744l5.842-29.14L59.44 59.327l11.887-38.134L97.422 47.92l24.611-36.612M6 9h21v59H6z"/><path fill="#2A3052" d="M10 12h13v4H10zM10 55h13v4H10zM10 18h13v4H10zM10 61h13v4H10z"/><path fill="#2A3052" fill-rule="nonzero" d="M5 77h26v4H5zM5 83h26v4H5zM35 77h26v4H35zM35 83h26v4H35zM65 77h58v4H65zM65 83h58v4H65z"/><path stroke="#2A3052" stroke-width="2" fill="#FFF" d="M42 35h42v21H42z"/><path fill="#2A3052" d="M49 48h12v2H49z"/><path fill="#E98024" d="M46 48h2v2h-2zM68 49h12v4H68z"/><path fill="#2A3052" d="M46 38h34v2H46zM46 41h34v2H46zM46 44h34v2H46z"/><path d="M93.604 65.596L73.96 50.231c-.574-.45-1.005-.222-.956.506L74.64 75.62c.049.728.446.848.885.264l5.365-7.138 4.52 8.549a1.33 1.33 0 0 0 1.792.551l1.17-.619a1.33 1.33 0 0 0 .554-1.79l-4.518-8.548 8.917-.415c.727-.036.853-.43.28-.879z" fill="#2A3052" fill-rule="nonzero"/></g></svg>