<svg width="128" height="96" viewBox="0 0 128 96" xmlns="http://www.w3.org/2000/svg"><title>easy step 3</title><g fill="none" fill-rule="evenodd"><rect stroke="#2A3052" stroke-width="2" x="1" y="1" width="126" height="94" rx="9"/><path d="M5.5 72.5h117" stroke="#2A3052" stroke-linecap="square"/><path stroke="#2A3052" stroke-width="2" d="M31.442 65.744l5.842-29.14L59.44 59.327l11.887-38.134L97.422 47.92l24.611-36.612M6 9h21v59H6z"/><path fill="#2A3052" d="M10 12h13v4H10zM10 55h13v4H10zM10 18h13v4H10zM10 61h13v4H10z"/><path fill="#2A3052" fill-rule="nonzero" d="M5 77h26v4H5zM5 83h26v4H5zM35 77h26v4H35zM35 83h26v4H35zM65 77h58v4H65zM65 83h58v4H65z"/><path stroke="#2A3052" stroke-width="2" fill="#FFF" d="M43 32h42v20H43z"/><path stroke="#2A3052" d="M46.5 35.5h14v10h-14z"/><path fill="#DB0000" d="M46 47h7v2h-7z"/><path fill="#1D9500" d="M54 47h7v2h-7z"/><path fill="#2A3052" d="M65 35h17v2H65zM65 38h17v2H65zM65 41h17v2H65zM65 44h17v2H65zM65 47h17v2H65z"/><path d="M78.604 63.596L58.96 48.231c-.574-.45-1.005-.222-.956.506L59.64 73.62c.049.728.446.848.885.264l5.365-7.138 4.52 8.549a1.33 1.33 0 0 0 1.792.551l1.17-.619a1.33 1.33 0 0 0 .554-1.79l-4.518-8.548 8.917-.415c.727-.036.853-.43.28-.879z" fill="#2A3052" fill-rule="nonzero"/></g></svg>