<svg width="128" height="96" viewBox="0 0 128 96" xmlns="http://www.w3.org/2000/svg"><title>easy step 1</title><g fill="none" fill-rule="evenodd"><rect stroke="#2A3052" stroke-width="2" x="1" y="1" width="126" height="94" rx="9"/><path d="M13.25 47.855c0-.658.148-1.183.443-1.574.296-.39.7-.586 1.213-.586.412 0 .752.154 1.02.461V44h1.133v6h-1.02l-.055-.45a1.328 1.328 0 0 1-1.086.528c-.497 0-.896-.196-1.197-.588-.3-.392-.451-.937-.451-1.635zm1.129.083c0 .395.069.699.207.91.138.21.338.316.601.316.35 0 .596-.147.739-.441v-1.668c-.14-.295-.384-.442-.73-.442-.545 0-.817.442-.817 1.325zm3.379-.09c0-.42.08-.793.242-1.121.161-.329.394-.582.697-.762.304-.18.656-.27 1.057-.27.57 0 1.036.175 1.396.524.361.349.562.823.604 1.422l.008.289c0 .648-.181 1.168-.543 1.56-.362.392-.848.588-1.457.588-.61 0-1.096-.195-1.46-.586-.363-.39-.544-.922-.544-1.594v-.05zm1.129.082c0 .4.075.707.226.92.151.212.367.318.649.318a.75.75 0 0 0 .64-.314c.154-.21.23-.545.23-1.006 0-.394-.076-.698-.23-.914a.75.75 0 0 0-.648-.325.737.737 0 0 0-.64.323c-.152.214-.227.547-.227.998zm7.246.535l.555-2.692h1.09L26.698 50h-.945l-.8-2.66-.802 2.66h-.941l-1.078-4.227h1.09l.55 2.688.774-2.688h.816l.77 2.692zm3.242-2.692l.035.489c.302-.378.707-.567 1.215-.567.448 0 .781.132 1 .395.219.263.33.656.336 1.18V50h-1.129v-2.703c0-.24-.052-.414-.156-.522-.104-.108-.278-.162-.52-.162a.777.777 0 0 0-.715.407V50h-1.128v-4.227h1.062zM34.008 50h-1.133v-6h1.133v6zm.754-2.152c0-.42.08-.793.242-1.121.161-.329.394-.582.697-.762.304-.18.656-.27 1.057-.27.57 0 1.036.175 1.396.524.361.349.562.823.604 1.422l.008.289c0 .648-.181 1.168-.543 1.56-.362.392-.848.588-1.457.588-.61 0-1.096-.195-1.46-.586-.363-.39-.544-.922-.544-1.594v-.05zm1.129.082c0 .4.075.707.226.92.151.212.367.318.649.318a.75.75 0 0 0 .64-.314c.154-.21.23-.545.23-1.006 0-.394-.076-.698-.23-.914a.75.75 0 0 0-.648-.325.737.737 0 0 0-.64.323c-.152.214-.227.547-.227.998zM41.91 50a1.254 1.254 0 0 1-.114-.379c-.274.305-.629.457-1.067.457-.414 0-.757-.12-1.029-.36a1.156 1.156 0 0 1-.408-.906c0-.447.166-.791.498-1.03.332-.24.812-.361 1.44-.364h.519v-.242a.696.696 0 0 0-.15-.469c-.1-.117-.259-.176-.475-.176-.19 0-.34.046-.447.137a.464.464 0 0 0-.162.375h-1.13c0-.245.076-.471.227-.68.151-.208.365-.371.64-.49.277-.118.587-.178.93-.178.521 0 .935.131 1.24.393.307.262.46.63.46 1.103v1.832c.002.401.058.705.168.91V50h-1.14zm-.934-.785c.166 0 .32-.037.46-.111a.731.731 0 0 0 .313-.3v-.726h-.422c-.565 0-.866.195-.902.586l-.004.066c0 .141.05.257.148.348a.577.577 0 0 0 .407.137zm2.597-1.36c0-.658.148-1.183.444-1.574.295-.39.7-.586 1.212-.586.412 0 .752.154 1.02.461V44h1.133v6h-1.02l-.054-.45a1.328 1.328 0 0 1-1.086.528c-.498 0-.897-.196-1.198-.588-.3-.392-.45-.937-.45-1.635zm1.13.083c0 .395.068.699.206.91.138.21.339.316.602.316.349 0 .595-.147.738-.441v-1.668c-.14-.295-.384-.442-.73-.442-.545 0-.817.442-.817 1.325zm6.898-3.204v1.04h.722v.828h-.722v2.109c0 .156.03.268.09.336s.174.101.343.101a1.8 1.8 0 0 0 .332-.027v.856c-.221.067-.449.101-.683.101-.792 0-1.196-.4-1.211-1.2v-2.276h-.618v-.829h.618v-1.039h1.129zm2.453 1.5c.3-.359.675-.539 1.129-.539.916 0 1.381.533 1.394 1.598V50H55.45v-2.676c0-.242-.052-.421-.156-.537-.104-.116-.277-.174-.52-.174-.33 0-.57.128-.718.383V50h-1.13v-6h1.13v2.234zm5.32 3.844c-.62 0-1.124-.19-1.514-.57-.389-.38-.584-.887-.584-1.52v-.11c0-.424.082-.803.246-1.138.165-.334.397-.592.698-.773.3-.181.644-.272 1.029-.272.578 0 1.033.183 1.365.547.332.365.498.882.498 1.551v.46h-2.691c.036.277.146.498.33.665.184.167.416.25.697.25.435 0 .775-.158 1.02-.473l.554.621c-.169.24-.398.427-.687.561-.29.134-.61.201-.961.201zm-.129-3.469a.707.707 0 0 0-.545.227c-.14.151-.228.367-.267.648h1.57v-.09c-.005-.25-.073-.443-.203-.58-.13-.136-.315-.205-.555-.205zM63.82 50v-5.688h1.992c.69 0 1.214.133 1.57.397.358.264.536.652.536 1.162a1.241 1.241 0 0 1-.813 1.203 1.2 1.2 0 0 1 .69.442c.168.221.252.492.252.812 0 .547-.175.961-.524 1.242-.349.282-.846.425-1.492.43h-2.21zm1.172-2.477v1.536h1.004c.276 0 .492-.066.647-.198.155-.131.232-.313.232-.545 0-.52-.27-.785-.809-.793h-1.074zm0-.828h.867c.592-.01.887-.246.887-.707 0-.258-.075-.443-.225-.556-.15-.114-.386-.17-.709-.17h-.82v1.433zM70.043 50H68.91v-4.227h1.133V50zm-1.2-5.32c0-.17.057-.309.17-.418.114-.11.268-.164.464-.164a.64.64 0 0 1 .46.164c.115.11.172.248.172.418a.554.554 0 0 1-.173.422.641.641 0 0 1-.46.164.641.641 0 0 1-.458-.164.554.554 0 0 1-.174-.422zm3.169 1.093l.035.489c.302-.378.707-.567 1.215-.567.448 0 .781.132 1 .395.218.263.33.656.336 1.18V50h-1.13v-2.703c0-.24-.051-.414-.156-.522-.104-.108-.277-.162-.519-.162a.777.777 0 0 0-.715.407V50H70.95v-4.227h1.063zM77.902 50a1.254 1.254 0 0 1-.113-.379c-.273.305-.629.457-1.066.457-.414 0-.758-.12-1.03-.36a1.156 1.156 0 0 1-.408-.906c0-.447.166-.791.498-1.03.332-.24.812-.361 1.44-.364h.52v-.242a.696.696 0 0 0-.151-.469c-.1-.117-.259-.176-.475-.176-.19 0-.339.046-.447.137a.464.464 0 0 0-.162.375h-1.13c0-.245.076-.471.227-.68.152-.208.365-.371.641-.49.276-.118.586-.178.93-.178.52 0 .934.131 1.24.393.306.262.459.63.459 1.103v1.832c.003.401.059.705.168.91V50h-1.14zm-.933-.785c.166 0 .32-.037.46-.111a.731.731 0 0 0 .313-.3v-.726h-.422c-.565 0-.866.195-.902.586l-.004.066c0 .141.05.257.148.348a.577.577 0 0 0 .407.137zm5.148-2.383a3.067 3.067 0 0 0-.406-.031c-.427 0-.707.144-.84.433V50h-1.129v-4.227h1.067l.03.504c.227-.388.541-.582.942-.582.125 0 .242.017.352.051l-.016 1.086zm2.192 1.57l.78-2.629h1.212l-1.7 4.883-.093.223c-.253.552-.67.828-1.25.828-.164 0-.33-.025-.5-.074v-.856l.172.004c.213 0 .373-.032.478-.097a.642.642 0 0 0 .248-.325l.133-.347-1.48-4.239h1.214l.786 2.63zm1.843 1.043c0-.18.06-.325.182-.437a.645.645 0 0 1 .455-.168.65.65 0 0 1 .459.168.568.568 0 0 1 .182.437.56.56 0 0 1-.18.432.653.653 0 0 1-.46.166.647.647 0 0 1-.458-.166.56.56 0 0 1-.18-.432zm4.024-.277a.74.74 0 0 0 .508-.172.602.602 0 0 0 .203-.457h1.058c-.002.287-.08.549-.234.787a1.547 1.547 0 0 1-.63.555 1.974 1.974 0 0 1-.886.197c-.604 0-1.08-.192-1.43-.576-.348-.384-.523-.915-.523-1.592v-.074c0-.651.173-1.17.52-1.559.346-.388.821-.582 1.425-.582.53 0 .953.15 1.272.451.319.301.481.702.486 1.202h-1.058a.77.77 0 0 0-.203-.534.68.68 0 0 0-.516-.205c-.263 0-.462.096-.596.287-.134.192-.2.502-.2.932v.117c0 .435.065.748.198.938.133.19.335.285.606.285zm2.238-1.32c0-.42.08-.793.242-1.121.162-.329.394-.582.698-.762.303-.18.655-.27 1.056-.27.57 0 1.036.175 1.397.524.36.349.561.823.603 1.422l.008.289c0 .648-.181 1.168-.543 1.56-.362.392-.848.588-1.457.588-.61 0-1.096-.195-1.459-.586-.363-.39-.545-.922-.545-1.594v-.05zm1.129.082c0 .4.075.707.227.92.15.212.367.318.648.318a.75.75 0 0 0 .64-.314c.154-.21.231-.545.231-1.006 0-.394-.077-.698-.23-.914a.75.75 0 0 0-.649-.325.737.737 0 0 0-.64.323c-.152.214-.227.547-.227.998zm4.629-2.157l.035.473c.3-.367.704-.55 1.215-.55.544 0 .918.214 1.121.644.297-.43.72-.645 1.27-.645.458 0 .799.134 1.023.4.224.268.336.67.336 1.206V50h-1.133v-2.695c0-.24-.047-.415-.14-.526-.094-.11-.26-.166-.497-.166-.338 0-.573.162-.703.485l.004 2.902h-1.129v-2.691c0-.245-.048-.422-.144-.532-.097-.109-.26-.164-.493-.164-.32 0-.552.133-.695.399V50h-1.129v-4.227h1.059zm11.355 1.762h-2.25v1.524h2.641V50h-3.813v-5.688h3.805v.95h-2.633v1.355h2.25v.918zm4.29 1.293h-2.055l-.39 1.172h-1.247l2.117-5.688h1.086L115.457 50h-1.246l-.395-1.172zm-1.739-.95h1.422l-.715-2.128-.707 2.129z" fill="#E98024"/><path d="M104.604 63.596L84.96 48.231c-.574-.45-1.005-.222-.956.506L85.64 73.62c.049.728.446.848.885.264l5.365-7.138 4.52 8.549a1.33 1.33 0 0 0 1.792.551l1.17-.619a1.33 1.33 0 0 0 .554-1.79l-4.518-8.548 8.917-.415c.727-.036.853-.43.28-.879z" fill="#2A3052" fill-rule="nonzero"/></g></svg>